<?xml version="1.0" standalone="no"?>
<!DOCTYPE svg PUBLIC "-//W3C//DTD SVG 20010904//EN"
 "http://www.w3.org/TR/2001/REC-SVG-20010904/DTD/svg10.dtd">
<svg version="1.0" xmlns="http://www.w3.org/2000/svg"
 width="500.000000pt" height="500.000000pt" viewBox="0 0 500.000000 500.000000"
 preserveAspectRatio="xMidYMid meet">
<metadata>
Created by potrace 1.14, written by Peter Selinger 2001-2017
</metadata>
<g transform="translate(0.000000,500.000000) scale(0.100000,-0.100000)"
fill="#000000" stroke="none">
<path d="M845 4701 c-6 -5 -39 -16 -75 -24 -36 -9 -137 -35 -225 -58 -88 -23
-169 -41 -180 -40 -108 9 -365 10 -365 1 0 -6 37 -10 98 -10 53 0 141 -3 194
-7 101 -6 122 -17 92 -48 -12 -12 -13 -16 -2 -19 7 -3 20 -7 28 -10 8 -3 -81
-4 -197 -3 -172 3 -213 1 -213 -10 0 -7 1 -13 3 -14 1 0 112 -2 247 -5 135 -2
309 -7 388 -10 l142 -6 0 -32 c0 -50 21 -306 29 -359 5 -30 4 -50 -2 -54 -13
-8 -672 -5 -749 3 -47 5 -58 4 -58 -8 0 -13 30 -16 178 -22 97 -3 276 -6 397
-7 121 0 230 -3 243 -6 23 -5 23 -8 17 -82 -3 -42 -7 -106 -8 -144 -1 -46 -6
-67 -14 -67 -7 0 -13 -5 -13 -11 0 -6 7 -8 16 -5 8 3 13 2 10 -3 -3 -5 1 -14
9 -21 35 -29 10 -70 -44 -70 -20 0 -43 -4 -51 -10 -9 -5 -19 -5 -27 1 -7 6
-18 7 -25 3 -7 -5 -21 -7 -30 -6 -11 2 -18 -3 -18 -12 0 -12 12 -16 48 -17 26
-1 68 -3 94 -5 39 -3 48 -1 52 14 4 11 23 24 45 30 41 13 61 43 61 92 0 29 2
30 45 30 43 0 45 2 45 28 -1 15 -6 54 -13 87 -10 45 -18 62 -35 70 -14 6 -24
22 -28 42 -12 62 -18 61 229 55 124 -2 238 -1 253 2 48 13 8 23 -89 24 -134 2
-290 2 -307 0 -30 -3 -75 2 -87 10 -7 4 -17 48 -23 97 -6 50 -15 94 -21 99 -5
6 -9 26 -9 45 0 63 -9 81 -41 81 -25 0 -29 4 -29 29 0 17 6 31 16 35 13 5 15
2 11 -14 -7 -26 5 -26 21 0 7 11 10 31 6 44 -4 18 -1 25 15 29 28 7 231 -9
261 -21 14 -6 147 -50 295 -97 149 -48 279 -91 290 -95 11 -5 167 -57 348
-116 180 -59 334 -112 343 -118 13 -10 12 -12 -8 -14 -39 -3 -247 -1 -565 4
-167 2 -303 2 -303 -1 0 -19 97 -24 487 -26 241 -1 465 -5 499 -9 38 -5 93
-23 147 -49 48 -22 90 -41 93 -41 3 0 24 -8 47 -19 23 -10 76 -33 117 -50 41
-18 82 -35 90 -40 8 -4 67 -29 130 -55 63 -26 138 -58 165 -71 61 -28 104 -41
90 -27 -10 9 -277 132 -288 132 -3 0 -34 13 -69 30 -319 149 -543 237 -926
364 -224 74 -544 180 -712 236 -287 95 -312 102 -425 111 -66 6 -123 13 -126
17 -4 4 -11 36 -16 72 -6 36 -13 72 -17 82 -6 13 1 17 33 23 31 5 41 11 41 26
0 16 -5 18 -25 13 -15 -4 -25 -2 -25 5 0 13 -12 14 -25 2z m-56 -151 c7 -33 9
-65 5 -71 -7 -12 -283 -7 -303 6 -6 3 -11 26 -11 51 l0 44 38 -6 c22 -3 63 1
101 11 35 9 74 14 87 11 13 -3 26 -2 29 4 3 5 14 10 24 10 14 0 21 -13 30 -60z"/>
<path d="M915 3552 c-36 -18 -45 -27 -32 -30 10 -2 24 1 32 8 7 6 24 10 37 9
45 -4 79 1 73 11 -3 6 -15 10 -26 10 -10 0 -19 5 -19 10 0 14 -8 12 -65 -18z"/>
<path d="M406 3543 c-5 -5 -142 -13 -210 -13 -17 1 -27 -3 -22 -7 4 -4 102 -9
219 -10 200 -3 210 -2 194 14 -13 13 -37 18 -96 19 -44 2 -82 0 -85 -3z"/>
<path d="M1040 3530 c0 -5 7 -10 16 -10 8 0 12 5 9 10 -3 6 -10 10 -16 10 -5
0 -9 -4 -9 -10z"/>
<path d="M1315 3500 c-4 -6 -62 -10 -141 -10 -83 0 -134 -4 -134 -10 0 -13
-127 -13 -132 0 -3 9 -264 13 -730 11 l-178 -1 0 -34 c0 -24 5 -36 18 -39 16
-4 16 -5 0 -6 -16 -1 -18 -14 -18 -126 l0 -125 90 0 c89 0 110 -9 70 -30 -18
-9 -20 -20 -17 -87 l2 -77 32 -7 c41 -8 48 0 70 83 14 55 15 69 4 82 -7 9 -20
16 -27 16 -8 0 -14 5 -14 11 0 8 18 10 61 5 34 -3 168 -7 298 -7 206 -1 230
-3 186 -13 l-50 -12 3 -55 c5 -89 7 -91 60 -84 74 10 92 23 92 64 0 20 5 43
11 51 8 12 9 9 5 -11 -3 -14 -10 -95 -16 -180 -24 -338 -27 -370 -38 -381 -13
-13 -19 -1 -24 47 -3 26 -8 30 -35 33 -31 3 -32 2 -35 -40 l-3 -43 -47 -3
c-27 -2 -48 -5 -48 -6 0 -2 7 -17 15 -32 17 -33 19 -54 6 -54 -5 0 -12 15 -15
33 -4 20 -17 39 -35 52 -17 11 -32 28 -35 39 -3 11 -8 17 -12 13 -10 -9 -64
21 -64 37 0 17 -33 46 -53 46 -45 0 -67 -83 -24 -94 12 -3 33 -3 45 1 24 6 82
-14 82 -28 0 -5 -63 -9 -139 -9 -114 0 -140 -3 -145 -15 -3 -8 -10 -15 -15
-15 -5 0 -16 7 -25 15 -8 8 -22 15 -30 15 -13 0 -16 13 -16 74 0 41 -3 77 -7
79 -5 2 -25 7 -46 11 l-38 7 2 -100 c1 -54 -2 -104 -5 -110 -10 -16 -31 -13
-49 7 -20 22 -24 132 -6 132 8 0 9 4 0 13 -6 8 -8 17 -4 21 14 14 13 46 -2 46
-13 0 -15 -21 -15 -123 l0 -123 48 -14 c34 -9 136 -15 360 -18 174 -2 312 -8
312 -13 0 -5 -153 -10 -352 -11 l-353 -2 370 -7 c379 -7 465 -13 465 -33 0 -6
5 -4 10 4 8 12 10 11 10 -5 0 -11 9 -27 20 -35 11 -8 20 -21 20 -28 0 -12 -3
-12 -16 -1 -10 9 -18 9 -22 2 -4 -6 -21 -14 -38 -17 -17 -4 -44 -20 -60 -37
-25 -27 -29 -39 -32 -105 -3 -47 0 -80 7 -87 16 -16 13 -78 -4 -101 -15 -19
-15 -19 -16 5 0 13 -3 35 -6 49 -2 14 -6 31 -7 38 -2 12 -58 52 -73 52 -3 0 6
-12 20 -26 17 -16 28 -42 33 -71 8 -53 -2 -134 -17 -144 -14 -8 45 -29 85 -29
49 0 125 -24 209 -66 106 -53 105 -68 -10 -113 -77 -30 -94 -33 -149 -27 -39
4 -91 19 -136 40 -426 196 -658 310 -614 301 16 -4 86 -8 156 -10 70 -2 140
-9 156 -15 l29 -12 -48 -16 c-49 -17 -65 -40 -24 -34 31 5 90 35 94 48 4 11
-138 74 -163 74 -7 0 -25 7 -40 15 -36 19 -70 19 -77 2 -3 -8 -33 -22 -66 -31
l-61 -17 0 -274 c0 -172 -4 -276 -10 -280 -5 -3 -10 -34 -9 -68 0 -34 3 -56 6
-49 9 23 85 13 152 -22 l64 -33 -33 -6 c-18 -4 -61 -7 -95 -7 -35 0 -70 -3
-79 -6 -22 -8 -20 -41 3 -54 30 -16 89 -12 99 6 8 15 10 15 15 0 5 -14 25 -16
129 -15 122 2 133 0 196 -28 30 -13 32 -18 32 -61 0 -30 7 -58 20 -77 11 -16
20 -37 20 -46 0 -14 42 -16 382 -17 209 -1 389 0 400 4 10 3 16 10 13 15 -4 5
-2 9 4 9 5 0 11 -5 13 -11 2 -7 82 -10 244 -9 260 1 298 -5 292 -42 -2 -12
-13 -28 -25 -34 -25 -12 -20 -24 9 -24 11 0 17 -3 15 -7 -3 -5 -47 -6 -99 -4
-51 2 -120 4 -153 4 -69 1 -1087 -14 -1215 -17 -47 -1 -93 2 -103 7 -11 5 -23
4 -31 -2 -9 -8 -56 -9 -145 -5 l-131 7 0 -75 0 -75 29 5 c16 2 32 -1 35 -7 5
-7 -5 -11 -28 -11 l-36 0 0 -90 0 -91 133 7 c107 5 142 11 182 29 91 41 323
54 510 30 45 -6 88 -25 57 -25 -7 0 -12 -13 -12 -30 0 -21 5 -30 16 -30 11 0
14 6 9 20 -7 21 10 28 18 8 4 -10 6 -10 6 0 1 7 -4 22 -9 33 -10 18 -7 19 40
19 27 0 50 -4 50 -10 0 -5 -6 -10 -12 -10 -7 0 -22 -7 -32 -15 -17 -13 -18
-15 -2 -21 10 -4 33 5 59 22 48 32 76 33 115 4 35 -26 157 -30 206 -7 115 53
231 74 327 58 37 -6 88 -11 114 -11 25 0 78 -9 118 -19 39 -11 117 -27 172
-37 55 -9 116 -24 135 -32 19 -8 69 -18 110 -21 l75 -6 -3 -48 c-4 -57 12 -84
36 -65 13 11 15 10 9 -6 -5 -12 -2 -23 8 -30 9 -6 18 -28 22 -49 5 -32 3 -36
-11 -31 -14 5 -21 24 -17 47 1 5 -6 7 -16 5 -13 -2 -20 -16 -24 -48 -3 -25
-11 -57 -19 -72 -11 -23 -10 -30 9 -56 11 -17 21 -40 21 -51 0 -20 4 -21 167
-21 157 0 165 1 151 18 -9 9 -18 26 -19 36 -2 10 -13 24 -23 30 -35 20 -83 70
-91 96 -4 14 -18 38 -31 53 -13 16 -25 42 -25 58 -2 42 -2 41 -37 79 -41 44
-43 83 -4 98 51 20 148 28 232 20 81 -9 111 -6 109 9 -6 38 3 62 31 73 16 7
32 21 35 31 9 26 51 25 58 -1 3 -11 1 -20 -3 -20 -5 0 -12 -9 -15 -21 -5 -15
-10 -18 -18 -10 -16 16 -64 13 -71 -4 -3 -8 -1 -15 5 -15 5 0 7 -11 3 -25 -4
-15 -2 -25 4 -25 13 0 42 28 42 41 0 6 10 7 23 3 31 -9 34 -14 17 -24 -12 -7
-12 -12 -2 -22 20 -20 47 13 33 40 -9 17 -8 23 6 31 15 8 16 12 6 22 -19 19
-16 29 8 29 17 0 19 -3 10 -13 -13 -17 -4 -28 16 -20 12 5 14 0 8 -25 -7 -35
-4 -38 25 -20 15 10 22 9 37 -5 33 -29 97 -27 114 4 9 17 7 24 -10 40 -11 10
-27 16 -35 13 -11 -4 -16 0 -16 10 0 9 -6 16 -12 16 -22 0 -41 -17 -34 -29 4
-6 3 -11 -3 -11 -13 0 -30 32 -24 47 6 16 -34 36 -59 30 -14 -4 -22 0 -25 13
-9 35 -35 32 -94 -9 -31 -22 -59 -37 -63 -34 -20 20 9 110 54 170 50 66 90 85
170 81 94 -5 144 -40 190 -134 35 -71 54 -88 110 -99 13 -2 30 -11 39 -18 9
-8 60 -37 113 -64 l97 -51 6 29 c7 31 16 35 46 19 15 -9 21 -7 26 5 4 12 13
15 29 11 13 -4 24 -2 24 3 0 5 19 11 43 14 72 9 241 35 272 42 55 13 139 57
168 89 25 26 31 28 41 15 6 -8 19 -18 29 -22 9 -3 17 -10 17 -14 0 -4 12 -9
27 -10 15 0 33 -9 41 -20 7 -10 18 -17 24 -15 6 2 18 -4 27 -12 25 -22 70 -30
96 -16 19 10 30 9 69 -8 50 -23 56 -18 26 21 -11 14 -20 27 -20 30 0 5 68 -8
93 -18 22 -9 23 17 2 39 -8 8 -15 19 -15 25 0 6 -9 11 -20 11 -24 0 -27 28 -4
37 8 3 28 -4 44 -16 16 -11 38 -21 49 -21 27 0 35 -17 11 -23 -21 -5 -28 -27
-9 -27 6 0 9 -7 5 -15 -14 -39 37 12 54 53 12 28 4 47 -14 33 -15 -13 -58 -2
-53 13 2 6 21 12 43 14 21 2 68 12 102 24 56 18 66 25 79 56 8 20 17 77 20
128 l6 92 -39 21 c-21 11 -32 20 -23 21 11 0 15 9 14 30 -2 33 12 40 22 12 4
-9 15 -26 25 -36 18 -19 18 -19 18 10 0 36 -40 80 -56 64 -8 -8 -18 -5 -35 9
l-24 20 23 1 c24 0 29 19 10 38 -8 8 -8 15 2 27 16 20 30 19 30 -1 0 -10 6
-14 15 -10 8 3 15 1 15 -4 0 -6 5 -10 10 -10 6 0 10 7 10 15 0 8 -6 15 -12 15
-9 0 -8 4 2 10 27 18 -9 30 -94 30 -70 0 -77 2 -71 18 18 44 19 56 1 49 -10
-4 -23 -7 -30 -7 -7 0 -21 -6 -31 -14 -16 -12 -17 -16 -6 -30 9 -11 10 -16 2
-16 -6 0 -11 -10 -11 -21 0 -19 4 -21 34 -16 30 5 33 3 29 -14 -3 -10 0 -19 6
-19 6 0 11 -7 11 -15 0 -24 -19 -17 -26 10 -6 23 -24 36 -24 17 0 -4 -9 -13
-21 -20 -18 -11 -20 -11 -17 5 2 14 -5 19 -37 21 -45 4 -85 40 -85 77 0 12 10
31 23 42 12 11 30 30 39 41 14 17 22 19 47 12 28 -8 41 -5 41 11 0 3 -10 9
-21 12 -16 4 -20 10 -14 24 23 55 36 215 30 368 -3 88 -6 169 -5 180 3 89 1
96 -68 184 -74 95 -173 203 -180 197 -4 -4 103 -141 154 -197 30 -34 47 -77
40 -105 -4 -13 -1 -26 4 -29 7 -4 8 -52 5 -133 -8 -206 -15 -254 -38 -287 -26
-36 -24 -49 13 -87 26 -26 47 -65 38 -72 -1 -2 -24 -6 -49 -9 -41 -6 -49 -3
-85 28 -45 40 -69 45 -61 15 3 -14 -1 -24 -14 -31 -11 -5 -17 -14 -14 -20 4
-5 3 -14 -1 -20 -4 -8 -9 -7 -15 2 -6 10 -9 4 -9 -18 0 -18 -4 -33 -9 -33 -5
0 -7 -8 -4 -19 6 -25 -14 -96 -32 -111 -23 -19 -30 33 -15 109 8 37 12 112 11
171 -3 109 -3 563 -1 615 4 70 -36 257 -67 313 -36 67 -260 358 -301 392 -9 8
-41 43 -69 77 -28 34 -63 75 -77 90 -28 30 -32 43 -15 43 6 0 1 14 -11 30 -26
36 -47 41 -24 5 22 -34 12 -43 -13 -11 -22 27 -78 94 -188 220 -38 45 -58 71
-44 59 40 -36 42 -27 5 25 -20 27 -39 45 -47 42 -8 -2 -185 -3 -394 -1 -209 1
-540 4 -735 6 -361 3 -1066 12 -1108 14 -13 1 -20 6 -17 11 3 6 4 10 1 10 -3
0 -8 -4 -11 -10z m-898 -67 c-99 -2 -156 -7 -152 -13 3 -6 -5 -10 -19 -10 -14
0 -26 4 -26 9 0 6 -19 12 -42 14 -24 2 56 3 177 3 164 0 180 -1 62 -3z m814
-4 c8 -5 -92 -9 -233 -9 -162 0 -248 4 -248 10 0 13 462 12 481 -1z m124 1 c3
-5 -1 -10 -10 -10 -9 0 -13 5 -10 10 3 6 8 10 10 10 2 0 7 -4 10 -10z m440 0
c3 -5 -1 -10 -9 -10 -9 0 -16 5 -16 10 0 6 4 10 9 10 6 0 13 -4 16 -10z m254
-53 c5 -29 14 -106 21 -172 6 -66 15 -154 20 -195 5 -41 14 -140 20 -220 6
-80 15 -158 20 -175 12 -43 12 148 1 255 -5 47 -15 141 -22 210 -6 69 -17 168
-24 220 -7 52 -10 101 -7 109 4 12 66 13 406 7 221 -3 552 -6 736 -7 l335 0
55 -57 c278 -286 645 -720 724 -855 33 -55 56 -159 56 -251 l0 -69 -902 7
c-497 3 -991 9 -1099 12 l-196 7 -5 87 c-8 137 -27 149 -28 18 l0 -108 -69 0
c-81 0 -76 -9 -87 165 l-7 106 71 -5 c40 -3 77 -8 83 -12 7 -4 18 0 24 10 11
14 20 15 61 6 28 -6 294 -13 605 -18 449 -6 559 -10 573 -21 13 -11 24 -11 59
-1 28 7 91 10 176 8 73 -3 134 -2 136 1 2 4 59 2 127 -3 133 -9 266 2 294 25
27 22 13 87 -32 149 -70 100 -197 264 -268 349 -39 46 -84 100 -101 120 -16
20 -75 86 -132 147 l-102 110 -63 12 c-40 7 -283 14 -673 18 -722 7 -661 18
-659 -113 1 -43 9 -105 18 -137 17 -63 32 -91 23 -41 -4 17 -9 47 -13 68 l-6
37 195 0 c161 0 197 -3 207 -15 13 -16 75 -21 65 -6 -9 16 15 23 32 9 13 -10
17 -10 20 0 8 21 24 13 64 -30 40 -44 60 -46 41 -3 -15 33 -15 57 1 78 13 18
54 30 70 20 5 -3 35 -7 66 -9 120 -8 181 -16 181 -25 0 -5 9 -9 20 -9 11 0 20
-4 20 -10 0 -5 7 -10 15 -10 8 0 15 4 15 9 0 5 18 11 41 13 29 3 47 -1 62 -14
17 -16 23 -16 34 -5 12 11 21 10 58 -7 24 -12 44 -26 45 -33 0 -6 18 -14 39
-18 48 -8 57 -18 64 -70 3 -22 15 -94 26 -160 24 -139 29 -345 9 -345 -48 1
-56 10 -78 105 -26 116 -34 124 -103 102 -86 -28 -86 -29 -73 -123 13 -89 39
-84 -452 -79 -510 6 -543 9 -580 40 -22 19 -27 31 -26 65 1 27 -2 37 -7 29
-22 -35 -2 -98 40 -126 24 -16 71 -19 536 -24 281 -4 511 -7 513 -8 1 0 2 -7
2 -15 0 -17 -39 -25 -110 -21 -30 2 -286 4 -567 5 -383 1 -515 4 -520 13 -5 7
-13 28 -19 47 l-12 35 -1 -42 -1 -43 -74 0 c-41 0 -77 4 -80 9 -3 5 -8 73 -11
152 -3 79 -9 185 -15 234 -5 50 -12 131 -15 180 -4 50 -13 143 -20 207 -8 65
-12 124 -9 132 7 18 24 22 85 18 l48 -4 10 -51z m-491 46 c-21 -2 -57 -2 -80
0 -24 2 -7 4 37 4 44 0 63 -2 43 -4z m-1440 -10 c-16 -2 -40 -2 -55 0 -16 2
-3 4 27 4 30 0 43 -2 28 -4z m1751 -45 c-1 -42 -1 -42 -10 -13 -5 17 -7 36 -4
43 9 24 15 11 14 -30z m1757 -180 c23 -24 71 -78 108 -121 57 -67 66 -82 64
-112 -2 -39 6 -52 24 -37 14 11 47 -26 184 -203 66 -86 83 -118 76 -148 -3
-15 -15 -17 -103 -15 -89 3 -98 5 -93 21 3 11 0 17 -10 17 -10 0 -16 -9 -16
-25 0 -24 -3 -25 -54 -25 -53 0 -55 1 -64 33 -6 17 -13 82 -17 144 -3 62 -12
131 -18 155 -11 38 -18 45 -55 58 -28 10 -44 22 -47 35 -10 56 -35 227 -35
245 0 29 11 25 56 -22z m-1786 -43 c0 -30 -5 -37 -33 -48 -52 -22 -92 -76
-110 -148 -47 -197 -77 -338 -77 -364 0 -16 -3 -40 -6 -53 l-7 -23 -24 23
c-28 26 -42 54 -76 153 -82 232 -89 245 -156 250 -23 1 -44 4 -46 6 -2 2 0 48
4 101 11 147 -7 138 288 138 l243 0 0 -35z m-975 -6 c11 -17 2 -18 -19 -3 -17
12 -17 14 -4 14 9 0 20 -5 23 -11z m2927 -91 c33 -47 12 -31 -33 25 -27 32
-32 42 -15 27 15 -14 37 -37 48 -52z m197 -232 c8 -12 38 -52 67 -91 29 -38
62 -89 74 -112 12 -24 26 -41 30 -38 5 3 14 -4 21 -16 15 -29 -2 -66 -37 -79
-28 -11 -295 -14 -368 -4 -41 6 -44 8 -29 20 13 10 64 13 196 14 166 0 178 1
198 21 11 11 18 24 14 27 -4 4 -11 -1 -16 -11 -16 -28 -36 -21 -31 12 5 35
-22 89 -90 178 -122 160 -148 196 -148 206 0 11 93 -88 119 -127z m-323 37
c13 -96 11 -236 -3 -240 -23 -8 -33 46 -33 173 0 101 3 124 14 124 10 0 17
-18 22 -57z m-236 -132 c0 -12 -20 -25 -27 -18 -7 7 6 27 18 27 5 0 9 -4 9 -9z
m-3300 -81 c0 -5 -4 -10 -10 -10 -5 0 -10 5 -10 10 0 6 5 10 10 10 6 0 10 -4
10 -10z m348 -43 c3 -23 0 -27 -21 -27 -30 0 -43 35 -19 50 25 14 37 7 40 -23z
m1128 -123 c-3 -9 -6 -23 -6 -32 0 -14 -4 -13 -21 5 -24 24 -18 43 13 43 14 0
18 -5 14 -16z m-232 -110 c8 -20 8 -144 1 -144 -34 0 -110 73 -121 115 -9 36
3 45 61 45 39 0 54 -4 59 -16z m-558 -173 c-21 -23 -14 -41 15 -41 10 0 19 -4
19 -10 0 -5 7 -10 16 -10 8 0 12 -5 9 -10 -4 -6 -11 -8 -16 -5 -5 3 -6 -1 -3
-9 4 -11 0 -16 -10 -16 -9 0 -19 -7 -22 -15 -11 -28 -35 12 -36 60 -1 44 14
75 35 75 5 0 2 -9 -7 -19z m564 -1 c0 -5 -4 -10 -10 -10 -5 0 -10 5 -10 10 0
6 5 10 10 10 6 0 10 -4 10 -10z m778 -73 l3 -57 -61 0 c-33 0 -60 -4 -60 -10
0 -6 26 -10 59 -10 33 0 62 -3 65 -8 2 -4 7 -99 10 -211 l5 -204 76 -30 c45
-18 75 -36 75 -44 0 -11 -8 -13 -27 -9 -33 7 -44 0 -60 -36 -7 -16 -17 -28
-23 -28 -5 0 -10 -6 -10 -14 0 -20 -27 -40 -32 -24 -3 7 -11 -9 -19 -35 -13
-45 -16 -48 -44 -45 -23 2 -32 -2 -40 -19 -5 -13 -13 -23 -18 -23 -4 0 -5 -5
-1 -11 4 -7 1 -10 -7 -7 -8 3 -15 16 -16 29 -5 78 -20 845 -16 852 3 5 35 7
72 4 l66 -4 3 -56z m82 37 c0 -3 -10 -14 -21 -23 -18 -14 -20 -21 -10 -39 15
-28 14 -32 -9 -32 -17 0 -20 7 -20 43 0 24 3 47 7 50 8 9 53 9 53 1z m128 -17
c32 -8 56 -8 88 1 68 18 121 16 133 -7 6 -10 8 -21 5 -24 -3 -3 -1 -8 4 -11 6
-3 13 5 16 18 5 20 11 23 48 21 24 -1 70 -9 103 -18 49 -13 120 -16 390 -16
182 1 409 -2 505 -6 141 -6 182 -4 210 7 19 8 68 15 107 17 69 2 73 1 82 -22
11 -29 58 -37 220 -37 57 0 102 -3 98 -6 -4 -4 -1676 -5 -1852 0 -28 1 -40 5
-40 16 0 9 8 14 20 13 35 -4 75 8 75 23 0 12 -34 20 -63 15 -5 -1 -55 -8 -110
-15 -123 -16 -131 -12 -118 53 1 2 9 0 19 -4 9 -4 36 -12 60 -18z m2026 -118
c11 -10 14 -431 4 -503 -4 -27 -11 -52 -15 -56 -12 -12 -143 -19 -463 -26
-157 -4 -289 -10 -294 -15 -5 -5 -9 -27 -8 -50 l2 -43 -44 46 c-121 127 -213
146 -761 157 l-350 8 -75 28 c-41 15 -80 35 -87 44 -9 11 -12 63 -13 167 0 83
-3 172 -6 198 l-7 46 -43 0 c-24 0 -44 4 -44 10 0 12 2191 1 2204 -11z m-4084
-224 c28 -14 50 -29 50 -33 0 -4 10 -8 23 -9 35 -1 374 -149 364 -159 -3 -3
-14 -1 -26 5 -14 8 -22 8 -26 0 -11 -16 -46 -4 -190 66 -71 34 -156 75 -189
89 -32 15 -56 30 -52 33 3 3 1 12 -5 20 -16 19 -5 16 51 -12z m1440 -61 c0
-15 8 -33 18 -40 16 -12 15 -13 -9 -23 -25 -9 -55 -64 -44 -81 2 -4 -7 -12
-21 -18 -19 -9 -23 -17 -18 -36 3 -13 1 -27 -6 -31 -8 -5 -6 -11 7 -21 16 -12
16 -13 1 -14 -9 0 -20 5 -23 10 -3 6 -15 10 -26 10 -17 0 -20 -6 -17 -37 2
-26 8 -38 18 -38 8 0 14 6 12 13 -1 6 2 12 6 12 11 0 37 -48 30 -55 -2 -3 -26
-2 -51 1 -40 6 -45 9 -35 21 9 11 9 16 -3 24 -21 13 -21 12 -52 -31 -16 -22
-36 -40 -46 -40 -22 0 -41 -19 -41 -42 0 -10 -5 -18 -11 -18 -5 0 -7 5 -4 10
7 12 -42 33 -56 24 -5 -3 -9 0 -9 5 0 6 12 11 26 11 22 0 25 2 14 15 -10 12
-10 21 0 46 11 26 11 32 -1 40 -20 12 -25 11 -40 -8 -8 -10 -9 -14 -2 -10 21
13 22 -9 2 -27 -17 -14 -20 -25 -15 -52 4 -21 3 -34 -4 -34 -5 0 -10 -5 -10
-10 0 -12 22 -9 32 5 4 5 10 6 15 1 4 -4 0 -12 -10 -17 -9 -6 -15 -15 -11 -20
4 -7 -3 -9 -17 -7 -23 3 -24 7 -25 88 -1 47 -5 156 -8 243 l-6 157 220 0 220
0 0 -26z m-925 -144 c-3 -5 -12 -7 -20 -3 -21 7 -19 13 6 13 11 0 18 -4 14
-10z m1825 -89 c200 -6 232 -13 120 -26 -96 -11 -239 -61 -270 -95 -3 -3 -14
-13 -26 -22 -20 -18 -20 -17 -16 42 4 56 3 61 -27 91 -28 28 -29 31 -9 24 13
-5 115 -11 228 -14z m-1790 -26 c0 -8 -4 -15 -10 -15 -5 0 -10 7 -10 15 0 8 5
15 10 15 6 0 10 -7 10 -15z m-240 -30 c0 -13 -4 -14 -20 -5 -11 6 -20 13 -20
15 0 3 9 5 20 5 11 0 20 -7 20 -15z m2645 -15 c84 -9 161 -27 152 -36 -2 -2
-28 0 -58 5 -131 23 -430 35 -519 22 -142 -21 -185 -29 -229 -45 -58 -21 -64
-19 -17 5 67 36 128 50 241 56 61 3 112 7 115 10 6 5 192 -5 315 -17z m-927
-33 c4 -20 -25 -34 -40 -19 -15 15 -1 44 19 40 10 -2 19 -11 21 -21z m1128
-23 c18 -14 18 -14 -6 -3 -31 14 -36 19 -24 19 6 0 19 -7 30 -16z m-1683 -49
l26 -45 -35 0 c-19 0 -34 -5 -34 -11 0 -7 15 -10 40 -7 22 2 40 2 40 -1 0 -2
-9 -19 -21 -37 -23 -37 -19 -54 14 -54 20 0 20 0 1 -15 -17 -13 -17 -14 -1
-15 12 0 17 -8 17 -30 0 -25 -5 -31 -32 -38 -18 -4 -60 -8 -93 -8 l-60 1 0 55
c0 53 1 55 28 58 32 4 33 11 7 45 -11 14 -20 32 -20 40 0 16 77 107 90 107 5
0 20 -20 33 -45z m2484 19 c5 -14 -138 -24 -342 -24 -82 0 -145 -4 -138 -8 25
-16 -5 -31 -67 -34 -52 -2 -65 0 -65 12 0 8 11 17 25 21 21 6 20 7 -12 8 -21
1 -38 6 -38 11 0 6 43 11 108 11 59 1 179 5 267 9 204 9 258 8 262 -6z m-2733
-22 c-12 -9 -15 -16 -8 -19 7 -2 10 -12 7 -23 -8 -30 -33 -12 -33 24 0 40 5
45 32 38 20 -5 20 -5 2 -20z m-1288 -24 c-13 -9 -45 0 -63 18 -11 10 -9 13 9
16 28 4 71 -23 54 -34z m394 2 c0 -5 -5 -10 -11 -10 -5 0 -7 5 -4 10 3 6 8 10
11 10 2 0 4 -4 4 -10z m4230 -20 c0 -5 -4 -10 -10 -10 -5 0 -10 5 -10 10 0 6
5 10 10 10 6 0 10 -4 10 -10z m-4242 -37 c-4 -24 -24 -27 -24 -3 0 11 6 20 14
20 7 0 12 -8 10 -17z m762 7 c12 -8 9 -10 -13 -10 -17 0 -26 -4 -22 -11 4 -6
13 -8 21 -5 14 5 18 -5 14 -34 -3 -24 -8 -24 -29 1 -12 14 -20 18 -21 11 0 -7
-4 -10 -10 -7 -11 7 -14 48 -3 58 9 10 46 8 63 -3z m115 0 c3 -5 1 -10 -4 -10
-6 0 -11 5 -11 10 0 6 2 10 4 10 3 0 8 -4 11 -10z m3250 -25 c24 -2 33 -34 13
-47 -10 -8 -11 -10 0 -15 16 -6 52 -44 52 -55 0 -4 -9 -8 -21 -8 -18 0 -38 17
-94 80 -19 22 -8 64 14 54 9 -3 25 -7 36 -9z m-4088 -11 c-3 -3 -12 -4 -19 -1
-8 3 -5 6 6 6 11 1 17 -2 13 -5z m3718 -4 c3 -6 0 -12 -7 -15 -30 -11 -693
-21 -700 -11 -9 14 1 15 242 25 293 12 458 12 465 1z m235 0 c0 -5 -28 -10
-62 -12 l-63 -3 3 -38 c2 -21 -1 -44 -6 -50 -5 -7 -15 -34 -22 -62 -13 -51
-44 -95 -66 -95 -18 0 -22 55 -7 97 7 21 11 60 9 86 -7 88 -8 87 110 87 59 0
104 -4 104 -10z m250 -10 c0 -11 6 -20 13 -20 6 -1 1 -7 -13 -15 -22 -12 -26
-12 -37 2 -23 30 -15 45 30 52 4 0 7 -8 7 -19z m-4260 -10 c-20 -13 -33 -13
-25 0 3 6 14 10 23 10 15 0 15 -2 2 -10z m760 -49 c0 -3 -9 -17 -20 -31 l-20
-25 0 49 c0 48 0 49 20 31 11 -10 20 -21 20 -24z m908 30 c47 -1 62 -4 62 -16
0 -12 -27 -14 -160 -14 -124 0 -160 3 -160 13 0 21 5 22 102 19 51 -1 121 -2
156 -2z m-1678 -11 c-8 -5 -19 -10 -25 -10 -5 0 -3 5 5 10 8 5 20 10 25 10 6
0 3 -5 -5 -10z m4300 -29 c15 -29 -2 -33 -23 -5 -15 20 -16 24 -3 24 8 0 20
-9 26 -19z m-4202 -18 c16 -36 15 -50 -4 -57 -21 -8 -22 -7 -24 24 -5 64 6 79
28 33z m-4 -86 c17 -17 9 -37 -16 -37 -14 0 -18 5 -14 16 3 9 6 20 6 25 0 13
9 11 24 -4z m4270 4 c4 -5 2 -19 -2 -31 l-8 -22 -17 26 c-9 14 -17 28 -17 31
0 9 38 6 44 -4z m-102 -31 c-4 -29 -6 -30 -26 -17 -34 23 -33 47 2 47 26 0 28
-2 24 -30z m-3522 10 c0 -5 -2 -10 -4 -10 -3 0 -8 5 -11 10 -3 6 -1 10 4 10 6
0 11 -4 11 -10z m10 -24 c0 -3 -4 -8 -10 -11 -5 -3 -10 -1 -10 4 0 6 5 11 10
11 6 0 10 -2 10 -4z m2840 -136 c0 -6 -28 -9 -67 -8 l-68 1 50 7 c78 11 85 11
85 0z m73 3 c-13 -2 -33 -2 -45 0 -13 2 -3 4 22 4 25 0 35 -2 23 -4z m-263
-23 c-84 -12 -225 -22 -219 -15 9 8 145 22 214 22 l60 1 -55 -8z m-3363 -76
c-3 -3 -12 -4 -19 -1 -8 3 -5 6 6 6 11 1 17 -2 13 -5z m136 -1 c-7 -2 -19 -2
-25 0 -7 3 -2 5 12 5 14 0 19 -2 13 -5z m3812 -4 c4 -6 5 -13 2 -15 -7 -8 -57
7 -57 17 0 13 47 11 55 -2z m-15 -49 c0 -5 -4 -10 -9 -10 -6 0 -13 5 -16 10
-3 6 1 10 9 10 9 0 16 -4 16 -10z m-4430 -40 c0 -5 -4 -10 -10 -10 -5 0 -10 5
-10 10 0 6 5 10 10 10 6 0 10 -4 10 -10z m240 -1 c0 -16 -19 -19 -79 -13 -84
9 -77 26 9 23 39 -1 70 -6 70 -10z m70 0 c0 -14 -40 -16 -51 -3 -10 12 -7 14
20 12 17 -1 31 -5 31 -9z m96 1 c9 0 13 -4 10 -9 -7 -11 -56 -2 -56 11 0 6 7
7 16 4 9 -3 22 -6 30 -6z m524 0 c0 -5 -5 -10 -11 -10 -5 0 -7 5 -4 10 3 6 8
10 11 10 2 0 4 -4 4 -10z m320 1 c0 -11 -38 -21 -56 -14 -8 3 -11 9 -8 14 7
12 64 12 64 0z m517 -7 c3 -9 -39 -11 -154 -10 -212 4 -225 4 -218 16 9 14
367 8 372 -6z m-1680 0 c-3 -3 -12 -4 -19 -1 -8 3 -5 6 6 6 11 1 17 -2 13 -5z
m560 0 c-3 -3 -12 -4 -19 -1 -8 3 -5 6 6 6 11 1 17 -2 13 -5z m220 0 c-3 -3
-12 -4 -19 -1 -8 3 -5 6 6 6 11 1 17 -2 13 -5z"/>
<path d="M2221 3014 c0 -11 3 -14 6 -6 3 7 2 16 -1 19 -3 4 -6 -2 -5 -13z"/>
<path d="M2171 1504 c0 -11 3 -14 6 -6 3 7 2 16 -1 19 -3 4 -6 -2 -5 -13z"/>
<path d="M2695 1740 c-3 -5 3 -10 15 -10 12 0 18 5 15 10 -3 6 -10 10 -15 10
-5 0 -12 -4 -15 -10z"/>
<path d="M310 1776 c0 -2 7 -9 15 -16 9 -7 15 -8 15 -2 0 5 -7 12 -15 16 -8 3
-15 4 -15 2z"/>
<path d="M405 1730 c-3 -5 -1 -10 4 -10 6 0 11 5 11 10 0 6 -2 10 -4 10 -3 0
-8 -4 -11 -10z"/>
<path d="M1466 1715 c-9 -24 5 -41 16 -20 7 11 7 20 0 27 -6 6 -12 3 -16 -7z"/>
<path d="M1663 1663 c-13 -2 -24 -7 -24 -11 -1 -4 -3 -17 -4 -28 -1 -12 -5
-26 -9 -33 -5 -7 0 -11 13 -11 22 0 46 34 36 50 -3 6 -3 15 1 21 5 8 9 8 14
-1 5 -8 9 -7 13 4 6 16 2 17 -40 9z"/>
<path d="M1499 1623 c-1 -5 -1 -12 0 -17 1 -5 -6 -6 -14 -2 -26 9 -35 -2 -25
-29 7 -19 6 -25 -4 -25 -8 0 -17 6 -19 13 -4 7 -6 6 -6 -5 -1 -9 11 -20 29
-27 33 -11 33 -11 44 41 3 14 9 33 12 42 3 9 1 16 -5 16 -6 0 -12 -3 -12 -7z"/>
<path d="M1800 1100 c0 -5 5 -10 11 -10 5 0 7 5 4 10 -3 6 -8 10 -11 10 -2 0
-4 -4 -4 -10z"/>
<path d="M3710 1310 c0 -5 5 -10 10 -10 6 0 10 5 10 10 0 6 -4 10 -10 10 -5 0
-10 -4 -10 -10z"/>
<path d="M3690 3335 c7 -9 15 -13 17 -11 7 7 -7 26 -19 26 -6 0 -6 -6 2 -15z"/>
<path d="M3760 3255 c29 -30 56 -53 58 -51 6 6 -91 106 -102 106 -6 0 14 -25
44 -55z"/>
<path d="M3920 3082 c0 -9 65 -90 147 -181 17 -20 35 -33 38 -29 4 4 -36 54
-89 112 -53 58 -96 102 -96 98z"/>
<path d="M4112 2848 c3 -7 12 -14 21 -16 12 -2 15 1 11 12 -7 19 -38 22 -32 4z"/>
<path d="M4166 2793 c-3 -3 4 -14 16 -25 24 -20 31 -19 22 5 -6 17 -29 29 -38
20z"/>
<path d="M4220 2720 c6 -11 15 -18 21 -15 13 9 11 13 -12 25 -19 11 -20 10 -9
-10z"/>
<path d="M4252 2691 c2 -7 7 -12 11 -12 12 1 9 15 -3 20 -7 2 -11 -2 -8 -8z"/>
<path d="M4300 2652 c0 -5 7 -13 16 -16 10 -4 14 -1 12 6 -5 15 -28 23 -28 10z"/>
<path d="M4340 2606 c0 -2 8 -10 18 -17 15 -13 16 -12 3 4 -13 16 -21 21 -21
13z"/>
<path d="M4435 2490 c3 -5 8 -10 11 -10 2 0 4 5 4 10 0 6 -5 10 -11 10 -5 0
-7 -4 -4 -10z"/>
<path d="M4466 2456 c3 -8 13 -17 22 -21 13 -5 13 -2 -3 15 -21 24 -26 25 -19
6z"/>
<path d="M28 2082 c-31 -19 -36 -32 -13 -32 8 0 15 -7 15 -15 0 -16 12 -18 59
-9 32 7 33 24 1 24 -19 0 -34 25 -24 41 8 13 -7 10 -38 -9z"/>
<path d="M463 1862 c-71 -28 -80 -42 -28 -42 58 0 135 20 135 36 0 8 -7 14
-15 14 -8 0 -15 5 -15 10 0 13 -5 12 -77 -18z"/>
<path d="M4900 1775 c-6 -15 -8 -30 -6 -33 3 -3 10 8 16 23 6 15 8 30 6 33 -3
3 -10 -8 -16 -23z"/>
<path d="M4907 1517 c-11 -29 -9 -43 4 -30 6 6 9 19 7 29 -3 18 -4 18 -11 1z"/>
<path d="M4865 1420 c-3 -5 -1 -10 4 -10 6 0 11 5 11 10 0 6 -2 10 -4 10 -3 0
-8 -4 -11 -10z"/>
<path d="M4886 1385 c-3 -8 -1 -15 4 -15 6 0 10 7 10 15 0 8 -2 15 -4 15 -2 0
-6 -7 -10 -15z"/>
<path d="M4871 714 c0 -11 3 -14 6 -6 3 7 2 16 -1 19 -3 4 -6 -2 -5 -13z"/>
<path d="M3005 680 c-3 -5 -1 -10 4 -10 6 0 11 5 11 10 0 6 -2 10 -4 10 -3 0
-8 -4 -11 -10z"/>
<path d="M4201 646 c-8 -9 -11 -19 -7 -23 9 -9 29 13 24 27 -2 8 -8 7 -17 -4z"/>
<path d="M3262 609 c2 -6 8 -10 13 -10 5 0 11 4 13 10 2 6 -4 11 -13 11 -9 0
-15 -5 -13 -11z"/>
<path d="M3235 523 c-18 -17 -18 -18 -1 -21 23 -5 37 9 27 26 -6 11 -12 10
-26 -5z"/>
<path d="M670 502 c0 -5 7 -15 15 -22 8 -7 15 -8 15 -2 0 5 -7 15 -15 22 -8 7
-15 8 -15 2z"/>
<path d="M800 495 c0 -8 5 -15 10 -15 6 0 10 7 10 15 0 8 -4 15 -10 15 -5 0
-10 -7 -10 -15z"/>
<path d="M3003 453 c-12 -34 -25 -44 -39 -32 -11 9 -14 7 -14 -8 0 -10 6 -25
13 -32 10 -10 8 -12 -8 -9 -12 2 -21 13 -23 26 -2 13 -9 21 -15 19 -13 -4 -14
-72 -3 -178 7 -62 9 -67 41 -82 51 -24 113 -84 127 -123 l12 -35 104 2 c67 1
98 5 88 11 -9 5 -16 16 -16 23 0 20 10 19 27 -2 13 -16 13 -16 7 7 -3 14 -15
34 -25 46 -25 27 -24 42 1 19 11 -10 23 -15 27 -12 3 4 2 7 -4 7 -16 0 -34 49
-27 75 5 20 11 24 30 19 20 -5 24 -2 24 16 0 23 -21 50 -39 50 -6 0 -11 -12
-11 -27 0 -20 -10 -36 -35 -56 l-35 -28 0 41 c0 31 -8 53 -32 86 -33 46 -32
70 1 40 34 -31 36 3 2 42 -18 20 -37 49 -44 65 -8 18 -19 27 -34 27 -21 0 -23
-4 -20 -47 2 -27 8 -57 14 -68 6 -11 14 -35 18 -52 3 -18 11 -35 16 -38 5 -4
9 -16 9 -27 0 -11 8 -27 18 -34 11 -9 13 -13 4 -14 -9 0 -11 -7 -7 -20 4 -11
2 -20 -4 -20 -6 0 -11 8 -11 17 0 26 -37 96 -71 134 -28 31 -30 39 -25 80 4
32 1 55 -10 77 -18 37 -22 39 -31 15z m247 -393 c-4 -3 -9 -13 -13 -22 -3 -10
-11 -18 -16 -18 -6 0 -8 6 -5 14 3 8 1 17 -5 21 -12 7 -15 58 -5 68 4 3 16 -8
28 -26 13 -18 20 -34 16 -37z"/>
<path d="M718 434 c17 -11 26 -12 39 -4 16 10 15 10 -4 5 -12 -3 -24 -1 -28 5
-3 5 -11 10 -18 10 -6 0 -1 -7 11 -16z"/>
<path d="M2920 440 c0 -5 5 -10 11 -10 5 0 7 5 4 10 -3 6 -8 10 -11 10 -2 0
-4 -4 -4 -10z"/>
<path d="M4340 440 c0 -5 7 -10 16 -10 8 0 12 5 9 10 -3 6 -10 10 -16 10 -5 0
-9 -4 -9 -10z"/>
<path d="M850 420 c0 -13 11 -13 30 0 12 8 11 10 -7 10 -13 0 -23 -4 -23 -10z"/>
<path d="M90 390 c-32 -32 -23 -40 25 -24 38 14 43 18 31 30 -20 19 -32 18
-56 -6z"/>
<path d="M1122 339 c-9 -24 -46 -47 -129 -81 -41 -16 -41 -24 -3 -31 17 -4 36
-18 47 -34 9 -15 44 -54 78 -85 50 -48 61 -55 66 -40 22 58 31 104 27 141 -2
22 1 42 6 44 5 2 -7 21 -27 44 -20 22 -37 46 -37 52 0 19 -20 12 -28 -10z m28
-119 c0 -5 -4 -10 -10 -10 -5 0 -10 5 -10 10 0 6 5 10 10 10 6 0 10 -4 10 -10z
m5 -40 c3 -5 1 -10 -4 -10 -6 0 -11 5 -11 10 0 6 2 10 4 10 3 0 8 -4 11 -10z"/>
<path d="M0 295 c0 -10 10 -15 30 -15 32 0 40 14 14 24 -27 10 -44 7 -44 -9z"/>
<path d="M85 289 c-10 -15 1 -23 20 -15 9 3 13 10 10 16 -8 13 -22 13 -30 -1z"/>
<path d="M130 286 c0 -9 5 -16 10 -16 6 0 10 4 10 9 0 6 -4 13 -10 16 -5 3
-10 -1 -10 -9z"/>
<path d="M3341 144 c0 -11 3 -14 6 -6 3 7 2 16 -1 19 -3 4 -6 -2 -5 -13z"/>
<path d="M2220 61 c0 -11 5 -23 10 -26 6 -4 10 5 10 19 0 14 -4 26 -10 26 -5
0 -10 -9 -10 -19z"/>
<path d="M2770 60 c0 -11 4 -20 9 -20 5 0 7 9 4 20 -3 11 -7 20 -9 20 -2 0 -4
-9 -4 -20z"/>
<path d="M2338 39 c-29 -17 -22 -39 13 -39 26 0 30 3 27 22 -4 26 -17 31 -40
17z"/>
<path d="M3343 24 c0 -20 5 -24 28 -24 25 0 27 2 20 22 -12 32 -48 33 -48 2z"/>
<path d="M3425 20 c3 -5 8 -10 11 -10 2 0 4 5 4 10 0 6 -5 10 -11 10 -5 0 -7
-4 -4 -10z"/>
</g>
</svg>
